<svg width="40" height="40" xmlns="http://www.w3.org/2000/svg">
  <g fill="none" fill-rule="evenodd">
    <circle fill="#2C7DF7" cx="20" cy="20" r="20"/>
    <path d="M25.53 12H14.47C12.005 12 10 14.013 10 16.489v7.022C10 25.986 12.005 28 14.47 28h11.06c2.465 0 4.47-2.013 4.47-4.489V16.49c0-2.476-2.006-4.49-4.47-4.49zm-11.06 1.434h11.06c1.534 0 2.796 1.152 3 2.638L20 20.446l-8.53-4.374c.207-1.486 1.465-2.638 3-2.638zm11.06 13.133H14.47a3.051 3.051 0 0 1-3.041-3.056V17.66l8.246 4.23c.102.054.214.08.325.08a.743.743 0 0 0 .327-.08l8.243-4.23v5.852a3.051 3.051 0 0 1-3.04 3.056z" fill="#FFF"/>
  </g>
</svg>