<svg xmlns="http://www.w3.org/2000/svg" xmlns:xlink="http://www.w3.org/1999/xlink">
  <defs>
    <path id="a" d="M0 0h1440v533H0z"/>
    <path id="d" d="M237 517h1140.98v1140.98H237z"/>
    <filter x="-5.3%" y="-5.3%" width="200%" height="200%" filterUnits="objectBoundingBox" id="c">
      <feOffset in="SourceAlpha" result="shadowOffsetOuter1"/>
      <feGaussianBlur stdDeviation="20" in="shadowOffsetOuter1" result="shadowBlurOuter1"/>
      <feColorMatrix values="0 0 0 0 0 0 0 0 0 0 0 0 0 0 0 0 0 0 0.405910326 0" in="shadowBlurOuter1"/>
    </filter>
    <path id="f" d="M871 237h1140.98v1140.98H871z"/>
    <filter x="-5.3%" y="-5.3%" width="200%" height="200%" filterUnits="objectBoundingBox" id="e">
      <feOffset in="SourceAlpha" result="shadowOffsetOuter1"/>
      <feGaussianBlur stdDeviation="20" in="shadowOffsetOuter1" result="shadowBlurOuter1"/>
      <feColorMatrix values="0 0 0 0 0 0 0 0 0 0 0 0 0 0 0 0 0 0 0.405910326 0" in="shadowBlurOuter1"/>
    </filter>
  </defs>
  <g fill="none" fill-rule="evenodd">
    <mask id="b" fill="#fff">
      <use xlink:href="#a"/>
    </mask>
    <use fill="#2C7DF7" xlink:href="#a"/>
    <use fill="#123262" xlink:href="#a"/>
    <g mask="url(#b)">
      <g transform="translate(-1297 -863)">
        <g opacity=".2" style="mix-blend-mode:overlay" transform="rotate(45 807.49 1087.49)">
          <use fill="#000" filter="url(#c)" xlink:href="#d"/>
          <use fill="#2C7DF7" xlink:href="#d"/>
        </g>
        <g opacity=".2" style="mix-blend-mode:overlay" transform="rotate(45 1441.49 807.49)">
          <use fill="#000" filter="url(#e)" xlink:href="#f"/>
          <use fill="#2C7DF7" xlink:href="#f"/>
        </g>
        <circle fill="#7691C4" opacity=".147" style="mix-blend-mode:screen" cx="1613.695" cy="1089.695" r="40"/>
        <circle fill="#7691C4" opacity=".147" style="mix-blend-mode:screen" cx="1613.695" cy="1089.695" r="10"/>
        <g opacity=".482">
          <path d="M1675.195 1025.902l-7.07 7.071-.708-.707 7.071-7.07-2.828-2.83.707-.706 6.364 6.364-.707.707-2.829-2.829zm-192.953 628.567l-7.02-7.02.707-.707 7.02 7.02 2.829-2.828.707.707-6.364 6.364-.707-.707 2.828-2.829zm178.811-615.839l.707.707-7.778 7.779-.707-.708 7.778-7.778zm-14.142 14.142l.707.708-7.778 7.778-.707-.707 7.778-7.779zm-14.142 14.143l.707.707-7.778 7.778-.707-.707 7.778-7.778zm-14.142 14.142l.707.707-7.778 7.778-.707-.707 7.778-7.778zm-14.142 14.142l.707.707-7.779 7.778-.707-.707 7.779-7.778zm-14.143 14.142l.708.707-7.779 7.778-.707-.707 7.778-7.778zm-14.142 14.142l.707.707-7.778 7.778-.707-.707 7.778-7.778zm-14.142 14.142l.707.707-7.778 7.778-.707-.707 7.778-7.778zm-14.142 14.142l.707.707-7.778 7.779-.707-.707 7.778-7.779zm-14.142 14.142l.707.708-7.778 7.778-.707-.707 7.778-7.779zm-14.142 14.143l.707.707-7.778 7.778-.707-.707 7.778-7.778zm-14.142 14.142l.707.707-7.778 7.778-.708-.707 7.779-7.778zm-14.143 14.142l.708.707-7.779 7.778-.707-.707 7.778-7.778zm-14.142 14.142l.707.707-7.778 7.778-.707-.707 7.778-7.778zm-14.142 14.142l.707.707-7.778 7.778-.707-.707 7.778-7.778zm-14.142 14.142l.707.707-7.778 7.779-.707-.708 7.778-7.778zm-14.142 14.142l.707.708-7.778 7.778-.707-.707 7.778-7.779zm-14.142 14.143l.707.707-7.778 7.778-.707-.707 7.778-7.778zm-14.142 14.142l.707.707-7.778 7.778-.708-.707 7.779-7.778zm-14.142 14.142l.707.707-7.779 7.778-.707-.707 7.779-7.778zm-14.143 14.142l.707.707-7.778 7.778-.707-.707 7.778-7.778zm-14.142 14.142l.707.707-7.778 7.778-.707-.707 7.778-7.778zm-14.142 14.142l.707.707-7.778 7.779-.707-.708 7.778-7.778zm-14.142 14.142l.707.707-7.778 7.779-.707-.707 7.778-7.779zm-14.142 14.143l.707.707-7.778 7.778-.707-.707 7.778-7.778zm-14.142 14.142l.707.707-7.778 7.778-.707-.707 7.778-7.778zm-14.142 14.142l.707.707-7.778 7.778-.708-.707 7.779-7.778zm-14.143 14.142l.708.707-7.779 7.778-.707-.707 7.778-7.778zm-14.073 15.487l6.434 6.433-.708.707-7.14-7.14 1.345-1.345.707.707-.638.638zm12.09 13.504l.708-.707 7.778 7.778-.707.707-7.779-7.778zm14.143 14.142l.707-.707 7.778 7.779-.707.707-7.778-7.779zm14.142 14.143l.707-.708 7.778 7.779-.707.707-7.778-7.778zm14.142 14.142l.707-.707 7.778 7.778-.707.707-7.778-7.778zm14.142 14.142l.707-.707 7.778 7.778-.707.707-7.778-7.778zm14.142 14.142l.707-.707 7.778 7.778-.707.707-7.778-7.778zm14.142 14.142l.707-.707 7.779 7.778-.708.707-7.778-7.778zm14.142 14.142l.707-.707 7.779 7.778-.707.707-7.779-7.778zm14.143 14.142l.707-.707 7.778 7.778-.707.708-7.778-7.779zm14.142 14.143l.707-.708 7.778 7.779-.707.707-7.778-7.778zm14.142 14.142l.707-.707 7.778 7.778-.707.707-7.778-7.778zm14.142 14.142l.707-.707 7.778 7.778-.707.707-7.778-7.778zm14.142 14.142l.707-.707 7.778 7.778-.707.707-7.778-7.778zm14.142 14.142l.707-.707 7.778 7.778-.707.707-7.778-7.778z" fill="#FFF" fill-rule="nonzero" opacity=".263" style="mix-blend-mode:multiply"/>
        </g>
      </g>
    </g>
  </g>
</svg>
