<svg width="33" height="33" xmlns="http://www.w3.org/2000/svg">
  <defs>
    <filter x="-36.4%" y="-36.4%" width="172.7%" height="172.7%" filterUnits="objectBoundingBox" id="a">
      <feOffset dy="2" in="SourceAlpha" result="shadowOffsetOuter1"/>
      <feGaussianBlur stdDeviation="2" in="shadowOffsetOuter1" result="shadowBlurOuter1"/>
      <feColorMatrix values="0 0 0 0 0 0 0 0 0 0 0 0 0 0 0 0 0 0 0.5 0" in="shadowBlurOuter1" result="shadowMatrixOuter1"/>
      <feMerge>
        <feMergeNode in="shadowMatrixOuter1"/>
        <feMergeNode in="SourceGraphic"/>
      </feMerge>
    </filter>
  </defs>
  <g filter="url(#a)" fill="#FFF" fill-rule="nonzero">
    <path d="M21.65 18.66a6.875 6.875 0 0 0 2.454-5.268 6.892 6.892 0 0 0-6.884-6.884h-5.475l-.035-.002a2.754 2.754 0 0 0-2.754 2.755v13.775a2.754 2.754 0 1 0 5.509 0v-2.757h1.593l3.036 4.338a2.753 2.753 0 0 0 3.836.676 2.753 2.753 0 0 0 .676-3.836L21.65 18.66zM16.5 33C7.387 33 0 25.613 0 16.5S7.387 0 16.5 0 33 7.387 33 16.5 25.613 33 16.5 33z"/>
    <g transform="translate(8.938 6.508)" opacity=".5">
      <circle cx="2.773" cy="2.755" r="2.755"/>
      <path d="M14.669 14.949a2.753 2.753 0 0 1-.676 3.836 2.753 2.753 0 0 1-3.836-.676l-4.125-5.894a2.753 2.753 0 0 1 .676-3.837 2.751 2.751 0 0 1 3.836.674l4.125 5.897z"/>
    </g>
  </g>
</svg>
