<svg width="32" height="32" xmlns="http://www.w3.org/2000/svg">
  <g fill-rule="nonzero" fill="#FFF">
    <path d="M20.994 18.095a6.667 6.667 0 0 0 2.38-5.108 6.683 6.683 0 0 0-6.676-6.676h-5.31l-.032-.002A2.67 2.67 0 0 0 8.684 8.98v13.358a2.67 2.67 0 1 0 5.343 0v-2.674h1.545l2.944 4.207a2.67 2.67 0 0 0 3.72.656 2.67 2.67 0 0 0 .655-3.72l-1.897-2.712zM16 32C7.163 32 0 24.837 0 16S7.163 0 16 0s16 7.163 16 16-7.163 16-16 16z"/>
    <g transform="translate(8.667 6.311)" opacity=".5">
      <circle cx="2.689" cy="2.671" r="2.671"/>
      <path d="M14.224 14.496a2.67 2.67 0 0 1-.655 3.72 2.67 2.67 0 0 1-3.72-.656l-4-5.716a2.67 2.67 0 0 1 .655-3.72 2.668 2.668 0 0 1 3.72.654l4 5.718z"/>
    </g>
  </g>
</svg>
