<svg xmlns="http://www.w3.org/2000/svg" width="32" height="32" viewBox="0 0 32 32">
  <path d="M16.6 8H12c1.3 0 2.3 1 2.3 2.3s-1 2.3-2.3 2.3c-1.2 0-2.3-1-2.3-2.2v11.4c0 1.3 1 2.3 2.3 2.3 1.3 0 2.3-1 2.3-2.3v-2.3h1.3l-.9-1.3c-.7-1-.5-2.5.6-3.2 1-.7 2.5-.5 3.2.6l1.8 2.6c1.3-1.1 2-2.7 2-4.4 0-3.2-2.6-5.8-5.7-5.8z"/>
  <g transform="translate(8.667 6.311)" opacity=".5">
    <circle cx="3.3" cy="4" r="2.3"/>
    <path d="M13.2 14.1c.7 1 .5 2.5-.6 3.2-1 .7-2.5.5-3.2-.6L6 11.8c-.7-1-.5-2.5.6-3.2 1-.7 2.5-.5 3.2.6l3.4 4.9z"/>
  </g>
</svg>
