<svg xmlns="http://www.w3.org/2000/svg" width="32" height="32" viewBox="0 0 32 32">
  <path d="M26.6 16c0-1.3-1-2.3-2.3-2.3-.6 0-1.2.2-1.6.7-1.6-1.1-3.8-1.9-6.2-2l1.1-5 3.4.7c0 .9.8 1.6 1.7 1.6.9 0 1.7-.7 1.7-1.7 0-.9-.7-1.7-1.7-1.7-.7 0-1.2.4-1.5.9l-3.9-.8c-.1 0-.2 0-.3.1-.1.1-.1.1-.2.3l-1.2 5.6c-2.5.1-4.7.8-6.3 2-.4-.4-1-.7-1.6-.7-1.3 0-2.3 1-2.3 2.3 0 1 .6 1.8 1.4 2.1 0 .2-.1.5-.1.7 0 3.6 4.2 6.5 9.3 6.5s9.3-2.9 9.3-6.5c0-.2 0-.5-.1-.7.9-.3 1.4-1.1 1.4-2.1zm-16 1.7c0-.9.7-1.7 1.7-1.7s1.7.7 1.7 1.7-.7 1.7-1.7 1.7-1.7-.8-1.7-1.7zm9.3 4.4c-1.1 1.1-3.3 1.2-3.9 1.2-.6 0-2.8-.1-3.9-1.2-.2-.2-.2-.4 0-.6.2-.2.4-.2.6 0 .7.7 2.2 1 3.3 1 1.1 0 2.6-.3 3.3-1 .2-.2.4-.2.6 0 .2.1.2.4 0 .6zm-.3-2.8c-.9 0-1.7-.7-1.7-1.7s.7-1.7 1.7-1.7 1.7.7 1.7 1.7-.7 1.7-1.7 1.7z"/>
</svg>
