<svg xmlns="http://www.w3.org/2000/svg" width="47" height="64">
  <path fill="#2C7DF7" d="M30.36 64c-4.573 0-7.906-1.1-9.998-3.299-2.092-2.2-3.138-4.57-3.138-7.111 0-.929.182-1.71.547-2.346a4.023 4.023 0 0 1 1.496-1.503c.633-.366 1.411-.55 2.335-.55.925 0 1.703.184 2.336.55a4.023 4.023 0 0 1 1.496 1.503c.365.635.547 1.417.547 2.346 0 1.124-.267 2.04-.802 2.75-.536.708-1.168 1.172-1.898 1.392.633.88 1.63 1.503 2.992 1.87 1.363.39 2.725.586 4.087.586 1.898 0 3.613-.513 5.145-1.54 1.533-1.026 2.664-2.541 3.394-4.545s1.095-4.276 1.095-6.818c0-2.761-.402-5.12-1.204-7.074-.779-1.98-1.934-3.446-3.467-4.399-1.533-.953-3.187-1.43-4.963-1.43-1.167 0-2.627.49-4.379 1.467l-3.21 1.613v-1.613l14.45-19.354H17.223v20.087c0 1.662.365 3.03 1.094 4.105.73 1.076 1.85 1.613 3.357 1.613 1.168 0 2.287-.39 3.358-1.173a11.895 11.895 0 0 0 2.773-2.859c.097-.22.219-.379.365-.476a.725.725 0 0 1 .474-.184c.268 0 .584.135.949.403.34.391.51.844.51 1.357a9.421 9.421 0 0 1-.182 1.026c-.827 1.857-1.97 3.275-3.43 4.252a8.475 8.475 0 0 1-4.817 1.466c-4.33 0-7.322-.855-8.976-2.566-1.654-1.71-2.482-4.032-2.482-6.964V16.495H0v-3.739h10.217V4.252L7.882 1.906V0h6.787l2.555 1.32v11.436l26.419-.073 2.627 2.639-16.202 16.275a10.813 10.813 0 0 1 3.066-.733c1.751 0 3.722.562 5.911 1.686 2.214 1.1 3.917 2.615 5.109 4.545 1.192 1.906 1.958 3.739 2.299 5.498.365 1.76.547 3.324.547 4.692 0 3.128-.657 6.036-1.97 8.724-1.314 2.688-3.309 4.692-5.985 6.012C36.369 63.34 33.475 64 30.36 64z"/>
</svg>
