<svg width="58" height="58" xmlns="http://www.w3.org/2000/svg"><g fill="none" fill-rule="evenodd"><path fill="#7691C4" opacity=".3" style="mix-blend-mode:multiply" d="M29 .716L57.284 29 29 57.284.716 29z"/><path fill="#7691C4" opacity=".8" style="mix-blend-mode:multiply" d="M9 9h40v40H9z"/><g transform="translate(13.5 13.5)"><path fill="#FFF" opacity=".75" d="M18.341 0v6h-6V0zM12.23 30.432v-6h6v6zM24.311 18.138v-6h6v6zM0 18.138v-6h6v6z"/><path fill="#FFF" opacity=".5" d="M28.443 7.242l-4.242 4.243-4.243-4.243L24.2 3zM2.018 23.428l4.243-4.243 4.242 4.243-4.242 4.242zM10.503 7.243L6.26 3 2.017 7.243l4.243 4.242zM19.958 23.429l4.243 4.242 4.242-4.242-4.242-4.243z"/><circle stroke="#FFF" stroke-width="4" cx="15.231" cy="15.326" r="7.902"/></g></g></svg>